<svg width="24" height="24" viewBox="0 0 24 24" fill="none" xmlns="http://www.w3.org/2000/svg">
<path d="M10 10C10 8.89543 10.8954 8 12 8C12.5523 8 13 7.55228 13 7C13 6.44772 12.5523 6 12 6C9.79086 6 8 7.79086 8 10C8 10.5523 8.44772 11 9 11C9.55228 11 10 10.5523 10 10Z" fill="#22263B"/>
<path fill-rule="evenodd" clip-rule="evenodd" d="M4 10C4 5.58172 7.58172 2 12 2C16.4183 2 20 5.58172 20 10C20 12.5049 18.8476 14.7414 17.0478 16.2067C17.0244 16.2258 17.0109 16.2449 17.0045 16.2575C17.0035 16.2594 17.0021 16.2626 17.0021 16.2626C17.0008 16.2656 17 16.2686 17 16.2686V17.0002C17 18.1051 16.1043 19 15 19H9C7.89581 19 7 18.1052 7 17.0003V16.2686C7 16.2686 6.99856 16.2633 6.99563 16.2575C6.98925 16.245 6.97575 16.2259 6.95218 16.2067C5.15242 14.7414 4 12.5049 4 10ZM12 4C8.68629 4 6 6.68629 6 10C6 11.878 6.86161 13.5539 8.21491 14.6557C8.66981 15.0261 9 15.6006 9 16.267V17H15V16.2673C15 15.6011 15.33 15.0263 15.7851 14.6557C17.1384 13.5539 18 11.878 18 10C18 6.68629 15.3137 4 12 4Z" fill="#22263B"/>
<path d="M8 22C8 21.4477 8.44772 21 9 21H15C15.5523 21 16 21.4477 16 22C16 22.5523 15.5523 23 15 23H9C8.44772 23 8 22.5523 8 22Z" fill="#22263B"/>
</svg>
