<svg width="16" height="16" viewBox="0 0 16 16" fill="none" xmlns="http://www.w3.org/2000/svg">
<path d="M8.00009 14.336C9.61435 13.365 11.4695 12.8685 13.353 12.9034C13.7147 12.8956 14.0036 12.5996 14.0026 12.2378V7.66977C14.0042 7.3938 13.8915 7.12948 13.6912 6.93961C13.4909 6.74975 13.221 6.6513 12.9455 6.66766C11.2068 6.72303 9.5084 7.20533 8.00009 8.07202M8.00009 14.336C6.38583 13.365 4.53066 12.8685 2.6472 12.9034C2.28548 12.8956 1.99661 12.5996 1.99758 12.2378V7.66977C1.99596 7.3938 2.10868 7.12948 2.30896 6.93961C2.50925 6.74975 2.77921 6.6513 3.0547 6.66766C4.79341 6.72303 6.49178 7.20533 8.00009 8.07202M8.00009 14.336V8.07202M10.0009 3.6649C10.0009 4.76993 9.10512 5.66573 8.00009 5.66573C6.89506 5.66573 5.99926 4.76993 5.99926 3.6649C5.99926 2.55987 6.89506 1.66406 8.00009 1.66406C9.10512 1.66406 10.0009 2.55987 10.0009 3.6649Z" stroke="#22263B" stroke-width="1.5" stroke-linecap="round" stroke-linejoin="round"/>
</svg>
