<svg width="24" height="24" viewBox="0 0 24 24" fill="none" xmlns="http://www.w3.org/2000/svg">
<path fill-rule="evenodd" clip-rule="evenodd" d="M7 3C4.79086 3 3 4.79086 3 7V17C3 19.2091 4.79086 21 7 21H17C19.2091 21 21 19.2091 21 17V13.1429C21 12.5906 20.5523 12.1429 20 12.1429C19.4477 12.1429 19 12.5906 19 13.1429V17C19 18.1046 18.1046 19 17 19H7C5.89543 19 5 18.1046 5 17V7C5 5.89543 5.89543 5 7 5H10.8571C11.4094 5 11.8571 4.55228 11.8571 4C11.8571 3.44772 11.4094 3 10.8571 3H7ZM15.9996 3C15.4473 3 14.9996 3.44771 14.9996 4C14.9996 4.55228 15.4473 5 15.9996 5L17.6235 5L11.7493 11.0077C11.3632 11.4026 11.3703 12.0357 11.7652 12.4219C12.1601 12.808 12.7932 12.8008 13.1793 12.406L18.9998 6.45311V7.99974C18.9998 8.55202 19.4475 8.99974 19.9998 8.99974C20.5521 8.99974 20.9998 8.55202 20.9998 7.99974V4C20.9998 3.73478 20.8945 3.48043 20.7069 3.29289C20.5194 3.10536 20.265 3 19.9998 3H15.9996Z" fill="#22263B"/>
</svg>
