<svg width="20" height="20" viewBox="0 0 20 20" fill="none" xmlns="http://www.w3.org/2000/svg">
<path d="M11.918 11.6C10.8586 12.6022 9.14043 12.6022 8.08105 11.6M13.5351 6.46449C15.5211 8.45047 15.4872 11.6908 13.4335 13.634C11.5375 15.4278 8.46214 15.4278 6.56616 13.634C4.5124 11.6908 4.47852 8.45047 6.4645 6.46449C8.41714 4.51184 11.5825 4.51184 13.5351 6.46449Z" stroke="#22263B" stroke-width="1.5" stroke-linecap="round" stroke-linejoin="round"/>
<path d="M1.6665 4.99935V4.16601C1.6665 2.7853 2.78579 1.66602 4.1665 1.66602H4.99984" stroke="#22263B" stroke-width="1.75" stroke-linecap="round"/>
<path d="M4.99984 18.334H4.1665C2.78579 18.334 1.6665 17.2147 1.6665 15.834V15.0007" stroke="#22263B" stroke-width="1.75" stroke-linecap="round"/>
<path d="M18.3335 4.99935V4.16601C18.3335 2.7853 17.2142 1.66602 15.8335 1.66602H15.0002" stroke="#22263B" stroke-width="1.75" stroke-linecap="round"/>
<path d="M15.0002 18.334H15.8335C17.2142 18.334 18.3335 17.2147 18.3335 15.834V15.0007" stroke="#22263B" stroke-width="1.75" stroke-linecap="round"/>
</svg>
