<svg width="16" height="16" viewBox="0 0 16 16" fill="none" xmlns="http://www.w3.org/2000/svg">
<path d="M11.7158 1.3921C12.0515 1.47203 12.2595 1.80933 12.1797 2.14503L11.4697 5.1255H13C13.3452 5.1255 13.625 5.40532 13.625 5.7505C13.625 6.09568 13.3452 6.3755 13 6.3755H11.1719L10.3984 9.6255H13C13.3452 9.6255 13.625 9.90532 13.625 10.2505C13.625 10.5957 13.3452 10.8755 13 10.8755H10.1006L9.32227 14.145C9.24232 14.4808 8.90513 14.6889 8.56934 14.6089C8.23366 14.5289 8.02662 14.1917 8.10645 13.856L8.81641 10.8755H5.81445L5.03613 14.145C4.95622 14.4807 4.61983 14.6886 4.28418 14.6089C3.94848 14.529 3.74054 14.1917 3.82031 13.856L4.53027 10.8755H3C2.65482 10.8755 2.375 10.5957 2.375 10.2505C2.375 9.90532 2.65482 9.6255 3 9.6255H4.82812L5.60156 6.3755H3C2.65482 6.3755 2.375 6.09568 2.375 5.7505C2.375 5.40532 2.65482 5.1255 3 5.1255H5.89941L6.67773 1.85597C6.75768 1.52018 7.09487 1.31215 7.43066 1.3921C7.76634 1.47208 7.97338 1.80933 7.89355 2.14503L7.18359 5.1255H10.1855L10.9639 1.85597C11.0438 1.52033 11.3802 1.31244 11.7158 1.3921ZM6.1123 9.6255H9.11426L9.8877 6.3755H6.88574L6.1123 9.6255Z" fill="#22263B"/>
</svg>
