<svg width="10" height="20" viewBox="0 0 10 20" fill="none" xmlns="http://www.w3.org/2000/svg">
<path fill-rule="evenodd" clip-rule="evenodd" d="M7.9043 15.365C7.93332 15.3632 7.96234 15.3622 7.99135 15.3622C8.36481 15.3622 8.72422 15.511 8.98817 15.7778C9.27271 16.0651 9.41965 16.462 9.39158 16.8654C9.26615 18.6288 7.99697 19.8877 6.23265 19.9972C6.20363 19.9991 6.17462 20 6.1456 20C5.77214 20 5.41273 19.8512 5.14878 19.5844C4.86425 19.2971 4.7173 18.9002 4.74538 18.4968C4.8708 16.7334 6.13998 15.4745 7.9043 15.365Z" fill="white" fill-opacity="0.4"/>
<path fill-rule="evenodd" clip-rule="evenodd" d="M0.762771 12.5571C1.41234 11.9833 2.18546 11.6801 2.99695 11.6801C3.79909 11.6801 4.56472 11.9768 5.21054 12.5384C5.51661 12.8042 5.69257 13.1889 5.69444 13.5932C5.69632 13.9985 5.52316 14.3841 5.2199 14.6518C4.57033 15.2256 3.79815 15.5288 2.98666 15.5288C2.18452 15.5288 1.41889 15.2321 0.77213 14.6705C0.466065 14.4047 0.290101 14.02 0.288229 13.6157C0.286357 13.2104 0.459513 12.8248 0.762771 12.5571Z" fill="white" fill-opacity="0.4"/>
<path fill-rule="evenodd" clip-rule="evenodd" d="M0.424897 5.70573C0.687907 5.45021 1.03984 5.30794 1.40393 5.30794C1.44137 5.30794 1.47881 5.30887 1.51625 5.31262C3.29274 5.45395 4.54976 6.7456 4.64429 8.52583C4.66488 8.93018 4.51138 9.32329 4.22123 9.60595C3.95822 9.86147 3.60629 10.0037 3.24219 10.0037C3.20475 10.0037 3.16732 10.0019 3.12988 9.99906C1.35339 9.8568 0.0963684 8.56608 0.00183449 6.78585C-0.0187571 6.38151 0.134744 5.98839 0.424897 5.70573Z" fill="white" fill-opacity="0.4"/>
<path fill-rule="evenodd" clip-rule="evenodd" d="M4.37098 0.474541C4.63774 0.173156 5.02149 0 5.42396 0H5.42958C5.83392 0.00187196 6.21861 0.177836 6.48443 0.484837C7.67125 1.85137 7.66376 3.68214 6.46571 5.03931C6.19895 5.3407 5.8152 5.51385 5.41273 5.51385H5.40711C5.00183 5.51198 4.61808 5.33602 4.35226 5.02995C3.16544 3.66342 3.17293 1.83265 4.37098 0.474541Z" fill="white" fill-opacity="0.4"/>
</svg>
