<svg width="16" height="16" viewBox="0 0 16 16" fill="none" xmlns="http://www.w3.org/2000/svg">
<path d="M13.2609 3.36255C13.1108 2.38689 12.2713 1.66667 11.2842 1.66667H2.33333C1.59695 1.66667 1 2.26362 1 3V7.66667C1 8.40305 1.59695 9 2.33333 9H3.90008C4.16354 9 4.40229 9.15516 4.50929 9.39591L6.85537 14.6746C6.94332 14.8725 7.13956 15 7.35611 15C8.264 15 9 14.264 9 13.3561V11C9 10.6318 9.29848 10.3333 9.66667 10.3333H12.0021C13.2279 10.3333 14.1652 9.24074 13.9789 8.02922L13.2609 3.36255Z" fill="#22263B"/>
<path d="M4.33333 1.66667V9M1 7.66667V3C1 2.26362 1.59695 1.66667 2.33333 1.66667H11.2842C12.2713 1.66667 13.1108 2.38689 13.2609 3.36255L13.9789 8.02922C14.1652 9.24074 13.2279 10.3333 12.0021 10.3333H9.66667C9.29848 10.3333 9 10.6318 9 11V13.3561C9 14.264 8.264 15 7.35611 15C7.13956 15 6.94332 14.8725 6.85537 14.6746L4.50929 9.39591C4.40229 9.15516 4.16354 9 3.90008 9H2.33333C1.59695 9 1 8.40305 1 7.66667Z" stroke="#22263B" stroke-width="1.75" stroke-linecap="round" stroke-linejoin="round"/>
</svg>
