<svg width="16" height="16" viewBox="0 0 16 16" fill="none" xmlns="http://www.w3.org/2000/svg">
<path d="M2.6665 10.6668V12.0281C2.6665 12.7648 3.26317 13.3614 3.99984 13.3614H5.99984M2.6665 5.33342V4.00009C2.6665 3.26342 3.26317 2.66676 3.99984 2.66676H5.99984M2.6665 8.00009H5.99984M5.99984 8.00009L4.6665 9.33342M5.99984 8.00009L4.6665 6.66676M9.44184 14.0001L12.4045 13.3414C12.9472 13.2214 13.3332 12.7401 13.3332 12.1848V3.84409C13.3332 3.28876 12.9472 2.80742 12.4052 2.68742L9.4425 2.02876C8.70184 1.86409 7.99984 2.42742 7.99984 3.18609V12.8434C7.99984 13.6014 8.70184 14.1648 9.44184 14.0001Z" stroke="#22263B" stroke-width="1.5" stroke-linecap="round" stroke-linejoin="round"/>
</svg>
