<svg width="182" height="166" viewBox="0 0 182 166" fill="none" xmlns="http://www.w3.org/2000/svg">
<g opacity="0.3">
<path d="M92.2588 116.707C95.9484 116.707 98.9248 119.677 98.9248 123.354C98.9248 127.03 95.9515 130 92.2588 130C88.566 130 85.5957 127.033 85.5957 123.354C85.5957 119.677 88.5691 116.707 92.2588 116.707ZM90.418 54.1182C93.7653 43.2983 100.901 31.6802 119.777 37.6016C138.657 43.523 140.013 74.3581 122.931 94.0029C121.284 95.8965 119.577 97.6312 117.821 99.208C120.064 100.904 121.327 103.657 121.327 107.225C121.327 113.425 117.517 117.167 111.371 117.167H108.898C103.552 117.167 99.9776 114.344 99.127 109.546C87.085 112.592 74.3853 109.487 63.1992 99.7666C42.5575 81.8316 35.1561 50.4735 58.2354 38.3047C67.2154 33.5708 84.4365 37.0414 90.418 54.1182Z" fill="#9199BA"/>
</g>
</svg>
