<svg width="24" height="24" viewBox="0 0 24 24" fill="none" xmlns="http://www.w3.org/2000/svg">
<path fill-rule="evenodd" clip-rule="evenodd" d="M13 4.00012L9.79965 4.00042C8.94314 4.0005 8.3609 4.00133 7.91085 4.03814C7.47248 4.07399 7.24829 4.13893 7.09191 4.21863C6.71562 4.41039 6.40969 4.71634 6.21796 5.09265C6.13828 5.24904 6.07336 5.47323 6.03755 5.91161C6.00078 6.36166 6 6.94391 6 7.80042V16.1999C6 17.0565 6.00078 17.6388 6.03755 18.0889C6.07337 18.5273 6.1383 18.7515 6.21799 18.9079C6.40973 19.2842 6.7157 19.5902 7.09202 19.7819C7.24842 19.8616 7.47262 19.9265 7.91104 19.9623C8.36113 19.9991 8.94342 19.9999 9.8 19.9999H14.2C15.0566 19.9999 15.6389 19.9991 16.089 19.9623C16.5274 19.9265 16.7516 19.8616 16.908 19.7819C17.2843 19.5902 17.5903 19.2842 17.782 18.9079C17.8617 18.7515 17.9266 18.5273 17.9624 18.0889C17.9992 17.6388 18 17.0565 18 16.1999L18 9H17C14.7909 9 13 7.20914 13 5V4.00012ZM17.6477 7C17.5475 6.86225 17.3845 6.67201 17.0597 6.30089L16.1819 5.2977C15.6195 4.65506 15.4499 4.47269 15.2621 4.34522C15.1785 4.28848 15.0909 4.23826 15 4.19491V5C15 6.10457 15.8954 7 17 7H17.6477ZM15.1498 2.12989C14.65 1.99931 14.1264 1.99963 13.4333 2.00005L13.3216 2.0001L9.75818 2.00042C8.95327 2.00048 8.28896 2.00053 7.74781 2.04479C7.18576 2.09077 6.6691 2.18937 6.18381 2.43667C5.43123 2.82019 4.81938 3.4321 4.43592 4.18472C4.18866 4.67003 4.09011 5.1867 4.04419 5.74875C3.99998 6.28991 3.99999 6.95421 4 7.75911V7.75912V16.2412V16.2412C3.99999 17.0462 3.99998 17.7105 4.04419 18.2517C4.09012 18.8138 4.18868 19.3305 4.43597 19.8159C4.81947 20.5685 5.43139 21.1804 6.18404 21.5639C6.66937 21.8112 7.18608 21.9098 7.74818 21.9557C8.28936 21.9999 8.95372 21.9999 9.75868 21.9999H14.2413C15.0463 21.9999 15.7106 21.9999 16.2518 21.9557C16.8139 21.9098 17.3306 21.8112 17.816 21.5639C18.5686 21.1804 19.1805 20.5685 19.564 19.8159C19.8113 19.3305 19.9099 18.8138 19.9558 18.2517C20 17.7105 20 17.0462 20 16.2412V16.2412V8.80328L20 8.71091V8.71084C20.0003 8.13289 20.0005 7.69606 19.9073 7.27098C19.8252 6.89582 19.6894 6.53446 19.5042 6.19801C19.2943 5.81678 19.0065 5.48815 18.6257 5.05336L18.6257 5.05334L18.5648 4.98384L17.687 3.98065L17.6135 3.89658C17.1573 3.37474 16.8128 2.98057 16.3853 2.69041C16.0084 2.43459 15.5906 2.24502 15.1498 2.12989Z" fill="#22263B"/>
</svg>
