<svg width="20" height="20" viewBox="0 0 20 20" fill="none" xmlns="http://www.w3.org/2000/svg">
<path d="M10.0002 17.92C12.0181 16.7063 14.337 16.0857 16.6914 16.1293C17.1435 16.1195 17.5046 15.7495 17.5034 15.2972V9.58721C17.5054 9.24225 17.3645 8.91185 17.1142 8.67452C16.8638 8.43719 16.5263 8.31412 16.182 8.33457C14.0086 8.40379 11.8856 9.00666 10.0002 10.09M10.0002 17.92C7.98241 16.7063 5.66344 16.0857 3.30912 16.1293C2.85697 16.1195 2.49588 15.7495 2.49709 15.2972V9.58721C2.49507 9.24225 2.63597 8.91184 2.88632 8.67451C3.13668 8.43718 3.47414 8.31412 3.8185 8.33457C5.99188 8.40379 8.11485 9.00666 10.0002 10.09M10.0002 17.92V10.09M12.5013 4.58112C12.5013 5.96241 11.3815 7.08216 10.0002 7.08216C8.61895 7.08216 7.4992 5.96241 7.4992 4.58112C7.4992 3.19983 8.61895 2.08008 10.0002 2.08008C11.3815 2.08008 12.5013 3.19983 12.5013 4.58112Z" stroke="#22263B" stroke-width="1.75" stroke-linecap="round" stroke-linejoin="round"/>
</svg>
