<svg width="20" height="20" viewBox="0 0 20 20" fill="none" xmlns="http://www.w3.org/2000/svg">
<path fill-rule="evenodd" clip-rule="evenodd" d="M2.5 8.26992C2.5 5.90432 4.34033 3.24023 7.26222 3.24023C8.4543 3.24023 9.35688 3.66789 10 4.17445C10.6431 3.66789 11.5457 3.24023 12.7378 3.24023C15.6597 3.24023 17.5 5.90432 17.5 8.26992C17.5 10.7351 15.9548 12.8112 14.3817 14.2134C13.5816 14.9266 12.7358 15.5011 11.9925 15.9015C11.6208 16.1017 11.2647 16.2638 10.9439 16.3779C10.6395 16.4862 10.3061 16.5736 10 16.5736C9.69393 16.5736 9.36053 16.4862 9.05613 16.3779C8.73531 16.2638 8.37915 16.1017 8.00754 15.9015C7.2642 15.5011 6.41845 14.9266 5.61829 14.2134C4.04523 12.8112 2.5 10.7351 2.5 8.26992Z" fill="#22263B"/>
</svg>
