<svg width="16" height="16" viewBox="0 0 16 16" fill="none" xmlns="http://www.w3.org/2000/svg">
<path d="M9.53442 9.28C8.68692 10.0817 7.31234 10.0817 6.46484 9.28M10.8281 5.17159C12.4169 6.76037 12.3898 9.35264 10.7468 10.9072C9.22999 12.3422 6.76971 12.3422 5.25292 10.9072C3.60992 9.35264 3.58281 6.76037 5.1716 5.17159C6.73372 3.60947 9.26599 3.60947 10.8281 5.17159Z" stroke="#22263B" stroke-width="1.25" stroke-linecap="round" stroke-linejoin="round"/>
<path d="M1.33301 3.9987V3.33203C1.33301 2.22746 2.22844 1.33203 3.33301 1.33203H3.99967" stroke="#22263B" stroke-width="1.5" stroke-linecap="round"/>
<path d="M3.99967 14.668H3.33301C2.22844 14.668 1.33301 13.7725 1.33301 12.668V12.0013" stroke="#22263B" stroke-width="1.5" stroke-linecap="round"/>
<path d="M14.667 3.9987V3.33203C14.667 2.22746 13.7716 1.33203 12.667 1.33203H12.0003" stroke="#22263B" stroke-width="1.5" stroke-linecap="round"/>
<path d="M12.0003 14.668H12.667C13.7716 14.668 14.667 13.7725 14.667 12.668V12.0013" stroke="#22263B" stroke-width="1.5" stroke-linecap="round"/>
</svg>
