<svg width="24" height="24" viewBox="0 0 24 24" fill="none" xmlns="http://www.w3.org/2000/svg">
<path d="M4 16.0001V18.0421C4 19.1471 4.895 20.0421 6 20.0421H9M4 8.00014V6.00014C4 4.89514 4.895 4.00014 6 4.00014H9M4 12.0001H9M9 12.0001L7 14.0001M9 12.0001L7 10.0001M14.163 21.0001L18.607 20.0121C19.421 19.8321 20 19.1101 20 18.2771V5.76614C20 4.93314 19.421 4.21114 18.608 4.03114L14.164 3.04314C13.053 2.79614 12 3.64114 12 4.77914V19.2651C12 20.4021 13.053 21.2471 14.163 21.0001Z" stroke="#22263B" stroke-width="2" stroke-linecap="round" stroke-linejoin="round"/>
</svg>
