<svg width="24" height="24" viewBox="0 0 24 24" fill="none" xmlns="http://www.w3.org/2000/svg">
<path d="M11.9999 21.504C14.4213 20.0475 17.2041 19.3028 20.0292 19.3551C20.5718 19.3434 21.0051 18.8994 21.0037 18.3567V11.5047C21.0087 10.6519 20.2692 9.95094 19.418 10.0015C16.8099 10.0845 14.2624 10.808 11.9999 12.108M11.9999 21.504C9.57851 20.0475 6.79574 19.3028 3.97055 19.3551C3.42797 19.3434 2.99467 18.8994 2.99612 18.3567V11.5047C2.99112 10.6519 3.73054 9.95093 4.58181 10.0015C7.18986 10.0845 9.73743 10.808 11.9999 12.108M11.9999 21.504V12.108M15.0011 5.49734C15.0011 7.15489 13.6574 8.49859 11.9999 8.49859C10.3424 8.49859 8.99865 7.15489 8.99865 5.49734C8.99865 3.8398 10.3424 2.49609 11.9999 2.49609C13.6574 2.49609 15.0011 3.8398 15.0011 5.49734Z" stroke="#22263B" stroke-width="2" stroke-linecap="round" stroke-linejoin="round"/>
</svg>
