<svg width="16" height="16" viewBox="0 0 16 16" fill="none" xmlns="http://www.w3.org/2000/svg">
<g clip-path="url(#clip0_33556_250331)">
<path d="M4.66683 14.3333V7M1.3335 8.33333V13C1.3335 13.7364 1.93045 14.3333 2.66683 14.3333H11.6177C12.6048 14.3333 13.4443 13.6131 13.5944 12.6374L14.3124 7.97078C14.4987 6.75926 13.5614 5.66667 12.3356 5.66667H10.0002C9.63197 5.66667 9.3335 5.36819 9.3335 5V2.64389C9.3335 1.736 8.5975 1 7.6896 1C7.47305 1 7.27682 1.12753 7.18887 1.32542L4.84279 6.60409C4.73579 6.84484 4.49704 7 4.23358 7H2.66683C1.93045 7 1.3335 7.59695 1.3335 8.33333Z" stroke="#22263B" stroke-width="1.75" stroke-linecap="round" stroke-linejoin="round"/>
</g>
<defs>
<clipPath id="clip0_33556_250331">
<rect width="16" height="16" fill="white"/>
</clipPath>
</defs>
</svg>
