<svg width="24" height="24" viewBox="0 0 24 24" fill="none" xmlns="http://www.w3.org/2000/svg">
<path fill-rule="evenodd" clip-rule="evenodd" d="M3 9.9243C3 7.08558 5.2084 3.88867 8.71467 3.88867C10.1452 3.88867 11.2283 4.40186 12 5.00973C12.7717 4.40186 13.8548 3.88867 15.2853 3.88867C18.7916 3.88867 21 7.08558 21 9.9243C21 12.8825 19.1457 15.3739 17.2581 17.0564C16.2979 17.9123 15.283 18.6018 14.3909 19.0822C13.945 19.3224 13.5176 19.5169 13.1326 19.6538C12.7674 19.7838 12.3673 19.8887 12 19.8887C11.6327 19.8887 11.2326 19.7838 10.8674 19.6538C10.4824 19.5169 10.055 19.3224 9.60905 19.0822C8.71704 18.6018 7.70214 17.9123 6.74194 17.0564C4.85428 15.3739 3 12.8825 3 9.9243Z" fill="#22263B"/>
</svg>
