<svg width="24" height="24" viewBox="0 0 24 24" fill="none" xmlns="http://www.w3.org/2000/svg">
<path fill-rule="evenodd" clip-rule="evenodd" d="M17.9361 16.3859C15.1945 11.999 8.80563 11.999 6.06398 16.3859L5.71662 16.9417C4.88411 18.2738 5.8418 20.0016 7.41265 20.0016H16.5875C18.1583 20.0016 19.116 18.2738 18.2835 16.9417L17.9361 16.3859ZM4.36796 15.3259C7.89293 9.68564 16.1072 9.68564 19.6322 15.3259L19.9795 15.8817C21.6445 18.5459 19.7292 22.0016 16.5875 22.0016H7.41265C4.27095 22.0016 2.35557 18.5459 4.0206 15.8817L4.36796 15.3259Z" fill="#22263B"/>
<path fill-rule="evenodd" clip-rule="evenodd" d="M8 6C8 3.79086 9.79086 2 12 2C14.2091 2 16 3.79086 16 6C16 8.20914 14.2091 10 12 10C9.79086 10 8 8.20914 8 6ZM12 4C10.8954 4 10 4.89543 10 6C10 7.10457 10.8954 8 12 8C13.1046 8 14 7.10457 14 6C14 4.89543 13.1046 4 12 4Z" fill="#22263B"/>
</svg>
