<svg width="24" height="24" viewBox="0 0 24 24" fill="none" xmlns="http://www.w3.org/2000/svg">
<path fill-rule="evenodd" clip-rule="evenodd" d="M5 10.476C5 6.96793 8.07448 4 12 4C15.9255 4 19 6.96793 19 10.476C19 14.4208 15.7724 17.7873 12 19.878V18.9516C12 17.8589 11.153 17.07 10.2223 16.911C7.10734 16.3786 5 13.735 5 10.476ZM12 2C7.09952 2 3 5.73807 3 10.476C3 14.6306 5.73396 18.1728 9.88534 18.8824C9.93176 18.8903 9.96801 18.9132 9.98772 18.9347C9.99626 18.944 9.9993 18.9503 10 18.952V19.9477C10 21.3698 11.5077 22.4278 12.8679 21.6833C16.8785 19.4878 21 15.5777 21 10.476C21 5.73807 16.9005 2 12 2ZM14.7987 9.05331C14.7068 7.5761 13.4526 6.44617 11.9795 6.50195C10.6743 6.47041 9.52263 7.35992 9.22656 8.63597C9.10173 9.17396 9.43667 9.71128 9.97466 9.83611C10.5127 9.96094 11.05 9.626 11.1748 9.08801C11.2572 8.73291 11.5806 8.4867 11.9448 8.50182C11.9771 8.50316 12.0094 8.50294 12.0416 8.50115C12.4272 8.4798 12.7593 8.76506 12.7999 9.14537C12.7897 9.33889 12.6809 9.51415 12.5107 9.6087L12.5107 9.60871L11.5153 10.1617C11.0325 10.4299 10.8586 11.0387 11.1268 11.5215C11.395 12.0043 12.0039 12.1782 12.4866 11.91L13.482 11.357L13.482 11.357C14.2963 10.9046 14.8007 10.0465 14.8007 9.11546C14.8007 9.09473 14.8 9.07401 14.7987 9.05331ZM12 15C12.5523 15 13 14.5523 13 14C13 13.4477 12.5523 13 12 13C11.4477 13 11 13.4477 11 14C11 14.5523 11.4477 15 12 15Z" fill="#22263B"/>
</svg>
