<svg width="124" height="140" viewBox="0 0 124 140" fill="none" xmlns="http://www.w3.org/2000/svg">
<g opacity="0.3">
<path d="M64.8115 103.707C68.5011 103.707 71.4775 106.677 71.4775 110.354C71.4775 114.03 68.5043 117 64.8115 117C61.1187 117 58.1484 114.033 58.1484 110.354C58.1484 106.677 61.1219 103.707 64.8115 103.707ZM62.9727 41.1182C66.32 30.2983 73.4559 18.6802 92.332 24.6016C111.211 30.523 112.567 61.3581 95.4854 81.0029C93.8384 82.8968 92.1309 84.632 90.375 86.209C92.6175 87.9053 93.8818 90.658 93.8818 94.2256C93.8817 100.425 90.0719 104.168 83.9258 104.168H81.4531C76.1066 104.168 72.532 101.345 71.6816 96.5459C59.6397 99.5916 46.94 96.4872 35.7539 86.7666C15.1122 68.8316 7.71079 37.4735 30.79 25.3047C39.7701 20.5708 56.9912 24.0414 62.9727 41.1182Z" fill="#9199BA"/>
</g>
</svg>
