<svg width="280" height="176" viewBox="0 0 280 176" fill="none" xmlns="http://www.w3.org/2000/svg">
<g opacity="0.3">
<path d="M141.784 135.84C147.021 135.84 151.246 140.056 151.246 145.273C151.246 150.491 147.026 154.708 141.784 154.708C136.543 154.708 132.327 150.496 132.327 145.273C132.327 140.056 136.548 135.84 141.784 135.84ZM139.177 47.0039C143.928 31.6468 154.055 15.1565 180.847 23.5605C207.643 31.965 209.569 75.7312 185.323 103.614C182.987 106.301 180.565 108.764 178.074 111.002C181.255 113.41 183.047 117.319 183.047 122.381C183.047 131.181 177.639 136.493 168.916 136.493H165.406C157.819 136.493 152.743 132.488 151.535 125.68C134.444 130.001 116.419 125.59 100.543 111.794C71.2454 86.3378 60.7398 41.8305 93.4971 24.5586C106.243 17.8395 130.687 22.7661 139.177 47.0039Z" fill="#9199BA"/>
</g>
</svg>
