<svg width="120" height="211" viewBox="0 0 120 211" fill="none" xmlns="http://www.w3.org/2000/svg">
<g opacity="0.3">
<path d="M63.4629 147.598C68.0093 147.598 71.6776 151.263 71.6777 155.8C71.6777 160.337 68.0133 164.002 63.4629 164.002C58.9127 164.002 55.2529 160.34 55.2529 155.8C55.2531 151.263 58.9166 147.598 63.4629 147.598ZM61.1982 70.3604C65.323 57.0083 74.1157 42.6715 97.375 49.9785C120.638 57.286 122.309 95.3376 101.261 119.58C99.2324 121.916 97.1293 124.057 94.9668 126.002C97.7289 128.095 99.2841 131.495 99.2842 135.896C99.2841 143.547 94.589 148.166 87.0156 148.166H83.9688C77.3823 148.166 72.978 144.684 71.9287 138.765C57.0907 142.523 41.4416 138.688 27.6582 126.692C2.22292 104.56 -6.89786 65.8626 21.541 50.8457C32.6065 45.0042 53.8278 49.2873 61.1982 70.3604Z" fill="#9199BA"/>
</g>
</svg>
