<svg width="120" height="211" viewBox="0 0 120 211" fill="none" xmlns="http://www.w3.org/2000/svg">
<g opacity="0.3">
<g clip-path="url(#clip0_9611_25404)">
<path d="M61.2588 139.707C64.9484 139.707 67.9248 142.677 67.9248 146.354C67.9248 150.03 64.9515 153 61.2588 153C57.566 153 54.5957 150.033 54.5957 146.354C54.5957 142.677 57.5691 139.707 61.2588 139.707ZM59.418 77.1182C62.7653 66.2983 69.9012 54.6802 88.7773 60.6016C107.657 66.523 109.013 97.3581 91.9307 117.003C90.284 118.896 88.5769 120.631 86.8213 122.208C89.0635 123.904 90.3271 126.657 90.3271 130.225C90.3271 136.424 86.5173 140.167 80.3711 140.167H77.8984C72.5522 140.167 68.9776 137.344 68.127 132.546C56.085 135.592 43.3853 132.487 32.1992 122.767C11.5575 104.832 4.1561 73.4735 27.2354 61.3047C36.2154 56.5708 53.4365 60.0414 59.418 77.1182Z" fill="#9199BA"/>
</g>
</g>
<defs>
<clipPath id="clip0_9611_25404">
<rect width="120" height="211" rx="60" fill="white"/>
</clipPath>
</defs>
</svg>
