<svg width="343" height="193" viewBox="0 0 343 193" fill="none" xmlns="http://www.w3.org/2000/svg">
<path d="M173.259 130.707C176.948 130.707 179.925 133.677 179.925 137.354C179.925 141.03 176.952 144 173.259 144C169.566 144 166.596 141.033 166.596 137.354C166.596 133.677 169.569 130.707 173.259 130.707ZM171.418 68.1183C174.765 57.2985 181.901 45.6805 200.777 51.6017C219.657 57.5231 221.013 88.3582 203.931 108.003C202.284 109.897 200.577 111.631 198.821 113.208C201.063 114.905 202.327 117.658 202.327 121.225C202.327 127.425 198.517 131.167 192.371 131.167H189.898C184.552 131.167 180.978 128.344 180.127 123.546C168.085 126.592 155.385 123.487 144.199 113.767C123.558 95.8318 116.156 64.4737 139.235 52.3048C148.215 47.571 165.436 51.0418 171.418 68.1183Z" fill="#9199BA"/>
</svg>
