<svg width="160" height="192" viewBox="0 0 160 192" fill="none" xmlns="http://www.w3.org/2000/svg">
<path d="M81.2588 129.707C84.9484 129.707 87.9248 132.677 87.9248 136.354C87.9248 140.03 84.9516 143 81.2588 143C77.566 143 74.5957 140.033 74.5957 136.354C74.5957 132.677 77.5692 129.707 81.2588 129.707ZM79.418 67.1183C82.7653 56.2985 89.9014 44.6805 108.777 50.6017C127.657 56.5231 129.013 87.3582 111.931 107.003C110.284 108.897 108.577 110.631 106.821 112.208C109.063 113.905 110.327 116.658 110.327 120.225C110.327 126.425 106.517 130.167 100.371 130.167H97.8985C92.5523 130.167 88.9776 127.344 88.127 122.546C76.0851 125.592 63.3853 122.487 52.1992 112.767C31.5576 94.8318 24.1562 63.4737 47.2354 51.3048C56.2154 46.571 73.4365 50.0418 79.418 67.1183Z" fill="#9199BA"/>
</svg>
